<svg xmlns="http://www.w3.org/2000/svg" width="114.67" height="35.761" viewBox="0 0 114.67 35.761"><defs><style>.a{fill:#5c6ee3;}.b{fill:#4c4c4c;}</style></defs><g transform="translate(-56.473 -62)"><g transform="translate(56.473 62)"><path class="a" d="M78.208,75.172a8.574,8.574,0,1,0-15.81-4.6v3.837H58.852a2.379,2.379,0,1,0,0,4.758H62.4v6.916a11.674,11.674,0,1,0,15.81-10.915Zm-11.052-4.6a3.818,3.818,0,1,1,3.818,3.818H67.155ZM74.072,93a6.924,6.924,0,0,1-6.916-6.916V79.17h6.916a6.916,6.916,0,0,1,0,13.833Z" transform="translate(-56.473 -62)"/></g><g transform="translate(91.582 85.315)"><path class="b" d="M364.677,287.482a35.3,35.3,0,0,1-1.233,3.771q-.707,1.805-1.367,3.233h-1.132q-.66-1.428-1.367-3.233a35.3,35.3,0,0,1-1.232-3.771h1.347q.162.66.384,1.408t.471,1.482q.249.734.505,1.421t.485,1.226q.229-.539.485-1.226t.505-1.421q.249-.734.472-1.482t.384-1.408Z" transform="translate(-358.347 -284.573)"/><path class="b" d="M423.081,264.111a.8.8,0,0,1-.572-.222.88.88,0,0,1,0-1.2.848.848,0,0,1,1.145,0,.88.88,0,0,1,0,1.2A.8.8,0,0,1,423.081,264.111Zm.633,8.27h-1.252v-7h1.252Z" transform="translate(-414.838 -262.468)"/><path class="b" d="M451.669,285.977a3.632,3.632,0,0,1,1.273.2,2.065,2.065,0,0,1,.835.552,2.1,2.1,0,0,1,.451.848,4.108,4.108,0,0,1,.135,1.084v4.377l-.451.074q-.29.047-.653.088t-.788.074q-.424.033-.842.034a4.611,4.611,0,0,1-1.091-.121,2.44,2.44,0,0,1-.862-.384,1.756,1.756,0,0,1-.566-.694,2.428,2.428,0,0,1-.2-1.037,2,2,0,0,1,.236-1,1.878,1.878,0,0,1,.64-.673,2.964,2.964,0,0,1,.943-.377,5.136,5.136,0,0,1,1.131-.121q.188,0,.391.02t.384.054l.317.061q.135.027.189.04v-.35a2.825,2.825,0,0,0-.067-.613,1.407,1.407,0,0,0-.242-.539,1.23,1.23,0,0,0-.478-.377,1.874,1.874,0,0,0-.788-.141,5.935,5.935,0,0,0-1.084.087,3.818,3.818,0,0,0-.694.182l-.148-1.037a3.877,3.877,0,0,1,.808-.209A6.98,6.98,0,0,1,451.669,285.977Zm.108,6.277q.444,0,.788-.02a3.427,3.427,0,0,0,.572-.074v-2.088a1.615,1.615,0,0,0-.438-.114,4.866,4.866,0,0,0-.734-.047,4.745,4.745,0,0,0-.6.04,1.85,1.85,0,0,0-.579.168,1.243,1.243,0,0,0-.438.35.92.92,0,0,0-.175.586,1.006,1.006,0,0,0,.431.936A2.242,2.242,0,0,0,451.777,292.254Z" transform="translate(-438.375 -283.243)"/><path class="b" d="M515.067,292.66a3.335,3.335,0,0,1-.626.276,3.175,3.175,0,0,1-1.084.168,3.476,3.476,0,0,1-1.192-.2,2.586,2.586,0,0,1-.976-.626,3.027,3.027,0,0,1-.66-1.057,4.216,4.216,0,0,1-.242-1.509,4.147,4.147,0,0,1,.229-1.408,3.122,3.122,0,0,1,.667-1.1,3.056,3.056,0,0,1,1.071-.727,3.694,3.694,0,0,1,1.428-.263,8.042,8.042,0,0,1,1.529.128q.653.128,1.1.236v6.25a2.956,2.956,0,0,1-.835,2.344,3.772,3.772,0,0,1-2.532.727,6.89,6.89,0,0,1-1.246-.108,7.143,7.143,0,0,1-1.017-.256l.229-1.091a5.847,5.847,0,0,0,.922.263,5.54,5.54,0,0,0,1.138.115,2.371,2.371,0,0,0,1.61-.445,1.82,1.82,0,0,0,.492-1.414Zm-.013-5.2a4.226,4.226,0,0,0-.505-.1,6.119,6.119,0,0,0-.855-.047,1.9,1.9,0,0,0-1.556.66,2.661,2.661,0,0,0-.545,1.751,3.073,3.073,0,0,0,.155,1.037,2.049,2.049,0,0,0,.417.714,1.635,1.635,0,0,0,.606.418,1.919,1.919,0,0,0,.707.135,2.842,2.842,0,0,0,.916-.141,2.255,2.255,0,0,0,.66-.33Z" transform="translate(-492.614 -283.447)"/><path class="b" d="M577.222,289.667a4.47,4.47,0,0,1,.269-1.623,3.391,3.391,0,0,1,.714-1.152,2.9,2.9,0,0,1,1.024-.687,3.2,3.2,0,0,1,1.185-.229,2.7,2.7,0,0,1,2.169.882,4.058,4.058,0,0,1,.754,2.687v.209a1.943,1.943,0,0,1-.013.236h-4.8a2.564,2.564,0,0,0,.633,1.657,2.318,2.318,0,0,0,1.724.566A4.6,4.6,0,0,0,582,292.1a3.994,3.994,0,0,0,.68-.222l.175,1.051a3.721,3.721,0,0,1-.8.256,5.7,5.7,0,0,1-1.3.135,4.127,4.127,0,0,1-1.583-.276,2.951,2.951,0,0,1-1.1-.761,3.1,3.1,0,0,1-.64-1.152A4.867,4.867,0,0,1,577.222,289.667Zm4.808-.687a2.1,2.1,0,0,0-.424-1.394,1.461,1.461,0,0,0-1.206-.545,1.652,1.652,0,0,0-.761.168,1.8,1.8,0,0,0-.559.438,2.013,2.013,0,0,0-.357.62,3.052,3.052,0,0,0-.168.714Z" transform="translate(-551.766 -283.243)"/><path class="b" d="M645.317,286.558q.431-.107,1.145-.229a9.9,9.9,0,0,1,1.643-.121,3.553,3.553,0,0,1,1.387.236,2.17,2.17,0,0,1,.882.66,2.553,2.553,0,0,1,.465,1.017,5.909,5.909,0,0,1,.135,1.306v3.933h-1.253V289.7a5.987,5.987,0,0,0-.088-1.1,1.869,1.869,0,0,0-.29-.741,1.148,1.148,0,0,0-.539-.411,2.372,2.372,0,0,0-.835-.128q-.2,0-.417.013t-.411.034q-.2.02-.35.047l-.222.04v5.913h-1.253Z" transform="translate(-611.941 -283.447)"/><path class="b" d="M709.326,292.254a2.465,2.465,0,0,0,1.138-.2.683.683,0,0,0,.37-.647.858.858,0,0,0-.364-.727,5.774,5.774,0,0,0-1.2-.606q-.4-.162-.774-.33a2.707,2.707,0,0,1-.64-.4,1.73,1.73,0,0,1-.431-.552,1.763,1.763,0,0,1-.162-.795,1.785,1.785,0,0,1,.687-1.475,2.932,2.932,0,0,1,1.872-.545,5.278,5.278,0,0,1,.593.034q.3.034.552.081t.451.1q.2.054.3.094l-.229,1.078a3.176,3.176,0,0,0-.633-.222,4.093,4.093,0,0,0-1.037-.114,1.916,1.916,0,0,0-.916.209.692.692,0,0,0-.391.653.889.889,0,0,0,.088.4.93.93,0,0,0,.269.317,2.207,2.207,0,0,0,.451.263q.269.121.647.256.5.189.889.37a2.787,2.787,0,0,1,.667.424,1.629,1.629,0,0,1,.424.586,2.125,2.125,0,0,1,.148.842,1.67,1.67,0,0,1-.72,1.468,3.588,3.588,0,0,1-2.054.5,5.371,5.371,0,0,1-1.455-.155q-.525-.155-.714-.236l.229-1.077q.215.081.687.242A3.961,3.961,0,0,0,709.326,292.254Z" transform="translate(-666.589 -283.243)"/></g><g transform="translate(91.423 67.104)"><path class="b" d="M362.9,110.646a5.573,5.573,0,0,0-3.161.978v-5.6h-2.765V121.54h2.765v-.672a5.6,5.6,0,1,0,3.161-10.222Zm0,8.452a2.853,2.853,0,1,1,2.853-2.853A2.853,2.853,0,0,1,362.9,119.1Z" transform="translate(-356.977 -106.004)"/><path class="b" d="M582.413,148.4a3.486,3.486,0,0,0-2.824-1.165,3.956,3.956,0,0,0-1.745.4,2.978,2.978,0,0,0-1.125.932V147.5h-2.858v10.413H576.8v-5.977a2.171,2.171,0,0,1,.5-1.463,1.912,1.912,0,0,1,2.688-.043,2.159,2.159,0,0,1,.448,1.422v6.06h2.941v-6.539A4.514,4.514,0,0,0,582.413,148.4Z" transform="translate(-548.637 -142.422)"/><path class="b" d="M670.025,110.968h2.941v10.413h-2.941Zm1.46-1.492a1.735,1.735,0,0,0,1.268-.525,1.711,1.711,0,0,0,.525-1.247,1.76,1.76,0,0,0-.525-1.289,1.736,1.736,0,0,0-1.268-.525,1.718,1.718,0,0,0-1.269.536,1.771,1.771,0,0,0-.524,1.278,1.711,1.711,0,0,0,.525,1.247A1.735,1.735,0,0,0,671.485,109.475Z" transform="translate(-633.322 -105.889)"/><path class="b" d="M722.351,128.937v-2.629h-2.061v-3.06h-2.67v1.523a1.607,1.607,0,0,1-.383,1.118,1.431,1.431,0,0,1-1.112.419h-.607v2.629h1.852v4.68a3.169,3.169,0,0,0,.9,2.383,3.372,3.372,0,0,0,2.433.867,4.236,4.236,0,0,0,1.594-.256l.053-.022v-2.462l-.11.032a3.247,3.247,0,0,1-.83.08,1.24,1.24,0,0,1-.857-.247,1.135,1.135,0,0,1-.264-.853v-4.2Z" transform="translate(-673.818 -121.229)"/><path class="b" d="M900.981,159.873a15.645,15.645,0,0,1-.1-1.842v-8.475h-2.941V155.6a1.976,1.976,0,0,1-.5,1.408,1.777,1.777,0,0,1-1.353.525,1.64,1.64,0,0,1-1.328-.542,2.167,2.167,0,0,1-.459-1.433v-6h-2.941v6.56a4.248,4.248,0,0,0,1.063,2.941,3.742,3.742,0,0,0,2.916,1.184,4.169,4.169,0,0,0,1.69-.351,2.59,2.59,0,0,0,1.059-.826,5.109,5.109,0,0,0,.081.837l.014.069h2.812Z" transform="translate(-829.208 -144.477)"/><path class="b" d="M993.58,148.882c-.284-.028-.5-.042-.654-.042a3.063,3.063,0,0,0-2.828,1.346v-1.263h-2.858v10.413h2.941v-4.77a2.842,2.842,0,0,1,.7-2.153,2.631,2.631,0,0,1,1.856-.653,4.185,4.185,0,0,1,.816.082l.1.021V148.89Z" transform="translate(-913.938 -143.845)"/><path class="b" d="M473.543,147.594a5.435,5.435,0,1,0,5.435,5.435A5.435,5.435,0,0,0,473.543,147.594Zm0,8.079a2.644,2.644,0,1,1,2.644-2.644A2.644,2.644,0,0,1,473.543,155.673Z" transform="translate(-455.183 -142.744)"/><path class="b" d="M790.473,147.594a5.435,5.435,0,1,0,5.435,5.435A5.435,5.435,0,0,0,790.473,147.594Zm0,8.079a2.644,2.644,0,1,1,2.643-2.644A2.644,2.644,0,0,1,790.473,155.673Z" transform="translate(-735.253 -142.744)"/></g></g></svg>